<?xml version="1.0" encoding="UTF-8" standalone="no"?>
<svg
   xml:space="preserve"
   width="456"
   height="456"
   viewBox="0 0 456 456"
   version="1.1"
   id="svg1"
   xmlns:xlink="http://www.w3.org/1999/xlink"
   xmlns="http://www.w3.org/2000/svg"
   xmlns:svg="http://www.w3.org/2000/svg"><defs
   id="defs1"><linearGradient
     id="linearGradient1"><stop
       style="stop-color:#f6af39;stop-opacity:1;"
       offset="0"
       id="stop1" /><stop
       style="stop-color:#db6d0f;stop-opacity:1;"
       offset="1"
       id="stop2" /></linearGradient><linearGradient
     xlink:href="#linearGradient1"
     id="linearGradient2"
     x1="42.755283"
     y1="20.989847"
     x2="477.76984"
     y2="276.08282"
     gradientUnits="userSpaceOnUse"
     gradientTransform="matrix(0.90649151,0,0,0.95834548,5.6383333,7.0785202)" /></defs>
<rect
   style="fill:#163247;fill-opacity:1;stroke:none;stroke-width:8.30062;stroke-linecap:round;stroke-linejoin:round;paint-order:stroke fill markers"
   id="rect2"
   width="455.22433"
   height="149.31192"
   x="0.77748919"
   y="306.68808" /><rect
   style="fill:url(#linearGradient2);stroke:none;stroke-width:2.79618;stroke-linecap:round;stroke-linejoin:round;paint-order:stroke fill markers"
   id="rect1"
   width="456"
   height="295.94681"
   x="-1.0658141e-14"
   y="3.5527137e-15" /><circle
   style="fill:#ffffff;fill-opacity:1;stroke:none;stroke-width:22.0521;stroke-dasharray:none;stroke-opacity:1;paint-order:stroke fill markers"
   id="path4"
   cx="127.57951"
   cy="179.18211"
   r="20.751541" /><g
   id="path2"
   transform="matrix(1.3877215,0,0,1.3877215,-88.399667,-88.400601)"><path
     style="color:#000000;fill:#ffffff;-inkscape-stroke:none;paint-order:stroke fill markers"
     d="m 273.28125,128.00195 c -3.13448,-0.35545 -5.34013,0.13731 -7.97656,0.74805 -2.63644,0.61074 -5.40049,1.49268 -8.07617,2.62109 -10.24213,4.31939 -18.56275,11.83026 -23.18555,21.41407 -0.62403,1.29372 -1.09423,2.71852 -1.61719,4.10546 -0.60817,-0.32544 -1.12403,-0.68563 -1.76367,-1.00195 -11.37448,-5.62503 -24.72176,-5.81295 -37.41602,-1.08594 -3.95996,1.47458 -7.04059,2.83299 -9.83593,5.09961 -1.39768,1.13331 -2.82958,2.5691 -3.8125,4.82032 -0.98293,2.25121 -1.09871,5.40411 -0.22071,7.75976 0.42057,1.12836 1.44035,2.8934 2.79883,4.07617 1.35848,1.18277 2.70026,1.7635 3.83789,2.16797 2.27526,0.80895 4.33401,1.15588 7.82031,1.80078 2.35825,0.43625 5.08423,0.96759 7.38868,1.41993 l -4.01954,3.41992 0.2754,0.73828 c -0.13204,0.13554 -0.29025,0.28378 -0.41407,0.41797 -0.5191,0.56259 -1.02895,1.16535 -1.55664,1.83203 -5.19718,6.56613 -8.33202,14.31533 -9.25781,22.74609 -0.34824,3.17244 -0.39222,5.89373 0.27734,8.1836 0.22399,0.76611 0.35594,1.77399 1.57422,3.53125 1.21828,1.75726 3.27853,2.92303 3.98633,3.24609 2.05585,0.93847 5.30348,1.19487 7.69727,0.29102 2.09126,-0.78956 1.9513,-1.016 2.39648,-1.3379 0.44518,-0.32189 0.85069,-0.64069 1.28711,-0.99609 0.87283,-0.71081 1.8398,-1.55107 2.82422,-2.45703 1.19364,-1.09849 3.36714,-3.06916 5.33203,-4.85156 0.32241,3.68948 0.96712,7.32065 2.2793,10.80859 1.63987,4.35911 3.64345,8.02043 6.32422,11.42383 1.1334,1.43892 2.22592,2.8075 4.375,4.09375 2.14907,1.28625 6.09564,1.80253 8.66406,0.84766 2.17267,-0.80779 5.05663,-3.8512 5.85547,-5.9004 0.79884,-2.04919 0.98622,-3.54035 1.33593,-5.71289 0.53981,-3.35329 1.09163,-6.63436 2.30469,-13.69726 0.15016,-0.87437 0.21865,-1.69299 0.29297,-2.53906 0.22177,-0.22891 0.66621,-0.47438 0.80469,-0.67774 0.97682,-1.4345 1.1166,-2.22034 1.29687,-2.87305 0.36054,-1.3054 0.46875,-2.19871 0.66211,-3.55664 0.21917,-1.53903 0.41532,-2.46145 0.38672,-4.14257 -0.003,-0.16427 -0.0852,-0.37815 -0.10351,-0.55664 0.41155,-0.81667 0.65294,-1.46383 0.82031,-2.01954 0.32997,-1.09557 0.57679,-2.29215 0.8789,-3.74804 0.44068,0.25422 0.5609,0.32935 1.04883,0.61133 1.95121,1.1276 3.28393,1.8801 4.51758,2.48242 0.61682,0.30116 1.16784,0.57535 2.15039,0.87304 0.17902,0.0542 0.58319,0.1327 0.82617,0.22461 0.10931,0.11609 0.1836,0.25033 0.29492,0.3711 1.00642,1.09184 1.32129,1.24201 1.90821,1.71093 0.58692,0.46893 1.22141,0.95256 1.85156,1.41602 0.63015,0.46346 1.23468,0.89379 1.82813,1.28711 0.29672,0.19666 0.5648,0.374 1.00781,0.62305 0.2215,0.12452 0.45527,0.26486 1.02539,0.5 0.28506,0.11756 0.63461,0.27177 1.38476,0.43554 0.12549,0.0274 0.38608,0.0577 0.54297,0.0996 0.0194,0.0175 0.0491,0.0491 0.0684,0.0664 0.4009,0.35999 0.76334,0.65489 1.17188,0.97851 0.81707,0.64725 1.78485,1.3663 2.84179,2.11133 1.82556,1.28682 5.24119,3.74124 7.45704,5.35938 h 0.002 c 2.12119,1.54899 3.42449,2.52239 5.13867,3.4375 0.85709,0.45755 1.89273,0.96164 3.42969,1.22851 1.53696,0.26688 3.57352,0.0349 4.87304,-0.45117 3.42484,-1.28047 6.01401,-5.29025 6.52149,-8.08984 0.50748,-2.79959 0.19374,-5.01304 -0.25781,-7.52539 -1.21344,-6.75169 -3.96396,-13.23419 -8.0918,-18.41211 -1.29671,-1.62659 -2.76491,-3.13639 -4.30664,-4.57813 0.0323,-0.006 0.0626,-0.006 0.0957,-0.0117 2.52111,-0.45408 7.43282,-1.18466 10.25781,-1.52148 2.40152,-0.28637 4.39192,-0.47264 7.00586,-1.81836 2.61394,-1.34572 5.35585,-5.44263 5.60352,-8.2793 0.0976,-1.11728 0.006,-3.84961 -1.11914,-5.9414 -1.12479,-2.0918 -2.16336,-2.85288 -3.08008,-3.69922 -7.43209,-6.86145 -18.00647,-10.32081 -28.4668,-10.125 -0.17777,0.003 -0.35894,0.034 -0.53711,0.0391 1.17733,-1.56067 1.58991,-2.06103 3.69336,-4.86328 0.9791,-1.30435 1.72389,-2.29136 2.46875,-3.70508 0.74487,-1.41371 1.32652,-3.59657 1.37891,-5.07812 0.13326,-3.76965 -1.45367,-5.69 -2.90625,-7.16211 -1.45258,-1.47212 -3.17698,-2.71552 -6.15039,-3.05274 z m -20.00977,24.92188 c -0.0579,0.33675 -0.0594,0.64577 -0.084,0.97265 -0.22736,0.0996 -0.34173,0.0875 -0.59961,0.22071 -0.67929,0.35083 -1.16931,0.92266 -1.70703,1.44531 0.69936,-0.93231 1.5526,-1.78162 2.39062,-2.63867 z m 9.39649,7.75195 c 0.10047,0.008 0.19201,0.0148 0.29687,0.0195 0.005,0.0118 0.003,0.0156 0.008,0.0273 -0.0835,-6.9e-4 -0.21487,-0.0412 -0.30469,-0.0469 z m -14.85742,0.45117 c -0.003,0.13448 -0.0151,0.30005 -0.0293,0.43946 -0.0684,0.66925 -0.0875,1.24257 -0.0859,1.83203 0.002,0.58945 0.0148,1.13965 0.11719,1.92578 0.0512,0.39306 0.0961,0.81707 0.34961,1.63476 0.25342,0.81741 -0.32827,2.87111 4.37305,5.01758 7.2e-4,3.3e-4 0.001,-3.3e-4 0.002,0 10e-4,4.7e-4 9.3e-4,0.001 0.002,0.002 3.9475,1.80239 4.38517,0.6692 4.97071,0.54687 0.58579,-0.12238 0.84444,-0.21972 1.07226,-0.29883 0.45564,-0.15822 0.68997,-0.26469 0.93555,-0.375 0.49115,-0.22061 0.91927,-0.43956 1.39062,-0.69531 0.44613,-0.24208 1.54069,-0.4917 2.21875,-0.75 -0.24442,0.23322 -0.46754,0.47275 -0.68359,0.71875 l 0.83789,-0.16602 c -0.31712,0.0622 -0.56395,0.12233 -0.85547,0.1836 -0.76596,0.8759 -1.41896,1.78579 -1.81445,2.64844 l 1.14844,-2.50586 c -0.17632,0.0394 -0.39468,0.0802 -0.5586,0.11914 -0.30525,0.0724 -0.57096,0.13682 -0.93359,0.24218 -0.18132,0.0527 -0.36474,0.1026 -0.77149,0.25782 -0.20337,0.0776 -0.44694,0.16197 -0.9707,0.44336 -0.26188,0.14069 -0.59594,0.31861 -1.13477,0.73828 -0.26941,0.20983 -0.59476,0.48173 -0.99414,0.91992 -0.19968,0.21909 -0.41782,0.48142 -0.64843,0.8125 -0.23061,0.33108 -0.7029,1.22997 -0.70313,1.23047 -0.002,0.008 -0.705,2.75672 -0.70508,2.75781 -7e-5,0.001 0.0388,1.76253 0.21094,2.46094 0.34419,1.39681 0.88984,2.22837 1.31055,2.80273 0.78721,1.07475 1.25122,1.35455 1.61719,1.61719 -0.30646,-0.17432 -0.32369,-0.17152 -0.67579,-0.375 -2.74788,-1.58801 -5.91658,-3.4608 -5.55468,-3.23633 -0.51395,-0.31876 -0.96521,-0.57993 -1.74805,-0.89648 -0.39142,-0.15828 -0.78831,-0.35711 -1.90039,-0.53516 -0.55604,-0.089 -1.29169,-0.24564 -2.77734,0.0332 -0.75694,0.14208 -1.89843,0.57329 -3.01368,1.33399 l 0.17969,-0.20508 -5.04101,3.21484 0.125,-0.008 c -0.38434,0.23059 -0.68068,0.38705 -0.89258,0.56055 -0.39755,0.3255 -0.67224,0.60926 -0.89063,0.85351 -0.87356,0.97704 -1.01055,1.39804 -1.17578,1.72461 -0.33045,0.65315 -0.37675,0.85641 -0.44531,1.05469 -0.13712,0.39657 -0.18172,0.5722 -0.23633,0.77344 -0.10922,0.40248 -0.20092,0.78379 -0.30859,1.24609 -0.21536,0.92462 -0.47215,2.11053 -0.74219,3.42578 -0.23455,1.14237 -0.3262,1.47798 -0.44727,1.97852 -0.30101,0.3613 -0.62045,0.65676 -0.91992,1.14648 -0.37129,0.60721 -1.58385,2.63339 -1.43945,5.33203 0.0631,1.18011 0.29412,1.93872 0.53125,2.5879 -0.52858,0.41849 -1.05999,0.84198 -1.44141,1.35937 -0.38062,0.51665 -0.88747,1.619 -1.29492,2.85742 0.25665,-2.29258 0.694,-4.69369 1.54492,-7.43554 0.27659,-0.89124 0.51629,-1.69378 0.69922,-2.33399 0.0915,-0.3201 0.166,-0.58394 0.24414,-0.89453 0.0391,-0.1553 0.0769,-0.28561 0.14649,-0.66016 0.0348,-0.18727 0.0947,-0.34306 0.13086,-1.13086 0.009,-0.19695 0.017,-0.44255 -0.004,-0.8164 -0.0209,-0.37385 -0.29266,-1.73917 -0.29297,-1.74024 -1.5e-4,-5.3e-4 -0.69706,-1.68322 -0.69727,-1.68359 -2e-4,-3.7e-4 -2.05052,-2.39628 -2.05078,-2.39648 -2.5e-4,-2.1e-4 -4.04265,-1.6406 -4.04297,-1.64063 -3.1e-4,-3e-5 -3.62073,0.45299 -3.62109,0.45313 -2.08424,0.77463 -1.48885,0.73485 -1.63281,0.83007 -0.14431,0.0955 -0.21002,0.1431 -0.26953,0.18555 -0.11902,0.0849 -0.19148,0.13941 -0.27149,0.19922 -0.16001,0.11961 -0.32704,0.24589 -0.52539,0.39844 -0.20602,0.15845 -0.49688,0.38715 -0.75195,0.58593 -0.19934,-0.0148 -0.55383,0.0809 -0.78516,0.0859 0.0321,-0.20727 0.17771,-0.42657 0.18946,-0.62695 0.005,-0.0819 -0.0188,-0.12348 -0.0156,-0.20313 2.48193,-1.74202 5.78083,-3.71042 7.26367,-4.26172 l 15.34766,-5.70703 -13.16016,-9.57422 c -0.70332,-0.51164 -1.60175,-1.23019 -3.37695,-1.80078 -0.80187,-0.25773 -1.68049,-0.34064 -2.50195,-0.37109 -0.35077,-0.43909 -0.79739,-0.88774 -1.33789,-1.3457 2.0851,0.47908 4.10348,1.155 6.02148,2.10351 3.30452,1.63418 5.43764,3.12032 6.82422,4.44727 0.44518,0.42604 0.8533,0.7918 1.35937,1.18945 0.25304,0.19883 0.49892,0.39474 1.01954,0.71484 0.2603,0.16006 0.55923,0.35622 1.26562,0.64258 0.70626,0.28631 1.68362,1.51832 5.62891,0.15625 h 0.002 c 2.63055,-0.90817 3.30186,-2.11976 3.78516,-2.76562 0.48398,-0.64678 0.6641,-1.02945 0.81054,-1.33203 0.29289,-0.60517 0.37365,-0.8885 0.45508,-1.14063 0.16287,-0.50425 0.22758,-0.79682 0.29883,-1.11133 0.14251,-0.629 0.25227,-1.24243 0.35547,-1.92773 0.30166,-2.00301 1.35463,-5.35279 2.38672,-7.87891 z m 24.86718,7.02735 c -0.0217,0.0169 -0.0352,0.0376 -0.0566,0.0547 -0.0271,-0.009 -0.0489,-0.026 -0.0762,-0.0351 0.0445,-0.006 0.0885,-0.014 0.13281,-0.0195 z m -67.53515,0.42968 c -0.61764,0.54261 -1.37972,1.09519 -1.69141,1.57227 0.0953,-0.14588 0.13249,-0.20236 0.31445,-0.40625 0.091,-0.10194 0.20999,-0.23611 0.50391,-0.49414 0.17132,-0.1504 0.42258,-0.38582 0.87305,-0.67188 z m 13.05273,0.70899 c 0.0825,0.0303 -0.0337,0.0665 -0.10742,0.0879 -0.6096,0.0231 -1.24309,0.0485 -1.61523,0.12305 1.19021,-0.23843 1.61199,-0.25159 1.72265,-0.21094 z m 52.92969,0.39648 c -0.8452,1.04004 -1.42743,2.14945 -1.79492,3.11133 l 1.13867,-2.98047 z m -56.61133,16.6211 1.4707,3.94531 -0.64062,0.54492 c 0.0247,-2.01715 -0.41884,-3.3869 -0.83008,-4.49023 z m 53.71485,4.33789 c 0.72569,0.42641 1.45042,0.81561 2.14648,1.28711 -0.50915,-0.0426 -0.95804,0.0508 -1.44141,0.0859 -0.0696,-0.15884 -0.0995,-0.32978 -0.17578,-0.48828 -0.1324,-0.27516 -0.37913,-0.59109 -0.52929,-0.88476 z m -5.56641,4.14648 c -0.51623,0.50867 -1.0824,0.91681 -1.51172,1.58985 0.0885,-0.13873 0.1336,-0.20955 0.30469,-0.41602 0.0855,-0.10324 0.19172,-0.23603 0.45898,-0.49609 0.15184,-0.14776 0.33987,-0.37559 0.74805,-0.67774 z m -64.13477,2.14844 c 0.56535,0.64702 1.30243,1.05869 2.00586,1.51562 -0.0253,-0.0135 -0.0829,-0.0324 -0.10742,-0.0449 -0.88618,-0.45128 -1.36757,-0.8632 -1.89844,-1.4707 z m 46.30469,2.81445 c -0.0861,-0.15546 0.0882,0.13346 0.28125,0.73047 -0.0934,-0.21903 -0.2079,-0.59804 -0.28125,-0.73047 z m -7.41406,3.33203 c -0.69896,-0.0311 -1.75108,0.329 -2.70899,0.56055 0.88408,-0.34445 1.80037,-0.60098 2.70899,-0.56055 z m -31.0918,0.20703 c 0.0556,0.3858 0.005,0.86636 0.0977,1.19922 0.10339,0.36952 -0.0517,-0.22884 -0.0977,-1.19922 z m 37.56055,3.62891 c -0.0376,0.0376 -0.0679,0.0985 -0.10938,0.13867 -0.29914,0.28971 -0.39847,0.69701 -2.27929,1.39649 1.06558,-0.39615 1.73647,-0.97337 2.38867,-1.53516 z"
     id="path10" /><path
     style="color:#000000;fill:#163247;-inkscape-stroke:none;paint-order:stroke fill markers"
     d="m 241.21916,191.72059 c -0.063,-0.0288 -0.5376,2.00927 -1.05491,4.52883 -0.73393,3.57464 -1.04921,4.62142 -1.43513,4.76489 -0.27201,0.10116 -0.69373,0.50956 -0.93715,0.90762 -0.39852,0.65174 -0.38956,0.81942 0.0902,1.68551 0.49175,0.88777 0.49722,1.21109 0.0715,4.2006 -0.35902,2.52131 -0.55602,3.23458 -0.88926,3.21975 -0.98709,-0.0439 -1.58819,0.1789 -2.0041,0.74308 -0.36365,0.4932 -0.37219,0.78559 -0.0484,1.6545 0.3203,0.8593 0.3057,1.566 -0.0785,3.80324 -1.21449,7.07123 -1.77296,10.39042 -2.31861,13.78005 -0.65555,4.07253 -1.02643,5.0239 -2.11645,5.42916 -1.19231,0.44327 -2.30352,-0.2218 -4.02753,-2.41053 -2.23986,-2.84364 -3.68526,-5.46562 -5.12983,-9.30556 -2.85583,-7.59118 -2.86082,-15.431 -0.0158,-24.5983 0.52464,-1.69054 0.91582,-3.05955 0.86927,-3.04224 -0.0466,0.0173 -0.94796,0.71055 -2.00312,1.54054 -1.05517,0.83001 -2.03297,1.54948 -2.1729,1.59886 -0.14004,0.0491 -0.83322,-0.051 -1.54064,-0.22305 -1.54233,-0.37508 -1.77433,-0.30858 -2.28075,0.65382 -0.26557,0.50465 -0.30445,1.04951 -0.12156,1.70315 0.32886,1.17532 0.50073,0.97578 -5.52055,6.40864 -2.46146,2.22095 -5.90034,5.34946 -7.64199,6.95227 -1.74161,1.60279 -3.51212,3.04464 -3.93445,3.20409 -0.5175,0.1954 -1.03626,0.1674 -1.59093,-0.0858 -0.73819,-0.33693 -0.86535,-0.52036 -1.23332,-1.77894 -0.33281,-1.13818 -0.33387,-2.09895 -0.006,-5.08585 0.78005,-7.1036 3.26344,-13.21656 7.58975,-18.68243 0.82236,-1.03897 1.66493,-1.95215 1.87238,-2.02927 0.20745,-0.0771 0.6126,0.12921 0.90037,0.45852 0.62459,0.71482 1.68995,0.79508 2.39262,0.18025 0.67693,-0.59228 0.71969,-1.32155 0.16481,-2.81025 l -0.47511,-1.27472 1.76596,-1.50188 c 3.12252,-2.65559 8.14438,-5.68134 11.49986,-6.92884 l 1.46698,-0.5454 -1.18509,-0.86214 c -0.97776,-0.71129 -1.34648,-0.82981 -2.10752,-0.67739 -0.56608,0.1134 -1.54266,-0.025 -2.52786,-0.35828 -1.47856,-0.50019 -1.64957,-0.63266 -2.16499,-1.67731 -0.63748,-1.292 -1.13459,-1.66113 -2.09366,-1.55474 -0.47467,0.053 -0.80938,0.28595 -1.14321,0.79691 -0.25959,0.39734 -0.58836,0.76572 -0.73058,0.81858 -0.14222,0.0528 -2.09352,-0.27557 -4.33623,-0.72988 -2.24271,-0.45431 -6.63366,-1.29883 -9.75766,-1.87673 -6.83099,-1.26361 -7.95729,-1.66406 -8.45787,-3.0071 -0.89399,-2.39855 2.07471,-4.80574 9.19798,-7.45824 10.98239,-4.08956 21.84837,-3.82321 31.12175,0.76276 3.78661,1.87259 6.63398,3.75919 8.79533,5.82759 0.5681,0.54368 1.10329,0.96421 1.18928,0.93451 0.086,-0.0296 0.28489,-0.90756 0.44199,-1.9508 0.5261,-3.49323 2.00626,-8.21414 3.63244,-11.58548 3.70213,-7.6751 10.49365,-13.90807 19.117,-17.54477 4.42416,-1.8658 9.6324,-3.0723 12.06943,-2.79594 0.99161,0.11246 2.04223,1.1772 2.01177,2.03883 -0.0388,1.09714 -0.45388,1.88501 -2.26329,4.29552 -8.69072,11.57789 -8.11165,10.87559 -8.77611,10.6438 -0.66462,-0.23182 -1.84727,0.27306 -2.19212,0.93589 -0.22739,0.43708 -0.19875,0.89083 0.10822,1.71454 0.41348,1.10935 0.40735,1.13443 -0.63856,2.60312 -1.58545,2.2264 -2.21772,2.74616 -3.48495,2.86486 -0.9155,0.0858 -1.09058,0.17619 -1.32313,0.68339 -0.25408,0.55421 -0.24793,2.95649 0.008,3.07325 0.0661,0.0302 0.64353,-0.22922 1.28328,-0.57634 4.50711,-2.44572 12.19409,-4.28994 18.36234,-4.4054 8.22915,-0.15404 17.64249,3.13786 22.92884,8.01832 1.58379,1.4622 1.78472,1.83589 1.67331,3.11189 -0.14935,1.71059 -1.50465,2.40832 -5.63447,2.90078 -3.06427,0.36535 -7.92544,1.08632 -10.72532,1.59061 -2.63914,0.47533 -2.90817,0.47268 -3.09574,-0.0305 -0.0886,-0.23783 -0.55336,-0.65387 -1.03272,-0.92455 -1.26375,-0.71361 -2.2753,-0.28585 -2.844,1.20266 l -0.42817,1.12067 -1.88239,0.37431 c -2.4297,0.48314 -2.47922,0.47901 -2.94736,-0.2461 -1.15999,-1.79671 -2.7813,-1.70092 -3.66027,0.21626 l -0.53494,1.16682 -2.48951,0.48791 c -1.36921,0.26835 -2.51328,0.53983 -2.54237,0.60329 -0.0291,0.0634 0.71952,0.34557 1.66357,0.62693 7.22471,2.1532 14.70704,7.12736 19.20106,12.76463 3.0612,3.83994 5.51262,9.45987 6.484,14.86473 0.73868,4.10991 0.36486,6.17213 -1.22668,6.76717 -0.88999,0.33289 -1.86021,-0.18515 -5.97341,-3.1888 -2.2644,-1.65359 -5.66934,-4.10066 -7.56648,-5.43794 -1.89715,-1.33729 -3.5262,-2.62776 -3.62013,-2.86772 -0.0944,-0.23977 -0.19979,-0.88157 -0.23534,-1.42581 -0.0542,-0.82995 -0.163,-1.06182 -0.67493,-1.43781 -0.70805,-0.52002 -1.93544,-0.20567 -2.47018,0.63264 -0.1791,0.28079 -0.39354,0.53957 -0.47652,0.57507 -0.2071,0.0886 -4.19907,-2.84744 -4.88851,-3.5954 -0.33265,-0.36085 -0.55178,-0.82174 -0.54273,-1.14142 0.0288,-1.01652 -0.54626,-2.21158 -1.18657,-2.46616 -0.59009,-0.23461 -0.74241,-0.18404 -2.47771,0.82261 -0.31838,0.18464 -1.65616,-0.4685 -5.44986,-2.66089 -2.76536,-1.59811 -5.36001,-3.11162 -5.76587,-3.36336 -0.40589,-0.25174 -0.7657,-0.39724 -0.79959,-0.32332 z"
     id="path11" /></g><path
   style="color:#000000;fill:#ffffff;stroke-width:1.83855;-inkscape-stroke:none"
   d="m 0,297.65701 v 9.80078 h 456.00181 v -9.80078 z"
   id="path7-0" /><path
   style="color:#000000;fill:#ffffff;stroke-width:1.74257;-inkscape-stroke:none"
   d="m 0.00180877,277.13662 v 10.61661 H 456 v -10.61661 z"
   id="path5" /><g
   id="path6"
   transform="matrix(1.3877215,0,0,1.3877215,-88.399667,-88.400601)"><path
     style="color:#000000;fill:#ffffff;-inkscape-stroke:none;paint-order:stroke fill markers"
     d="m 249.27734,190.85742 c -2.21999,-0.30429 -5.30509,0.77692 -6.80468,2.22461 -1.4996,1.44769 -1.91747,2.69467 -2.19532,3.5625 -1.11139,3.47131 -0.53132,4.26264 -0.38086,5.98242 0.15047,1.71978 0.41866,3.64465 0.76758,5.85157 1.39569,8.82766 4.14597,22.10678 6.19922,33.96093 1.02663,5.92708 1.87325,11.48785 2.2793,15.69336 0.20302,2.10276 0.28934,3.87546 0.26953,5.03125 -0.0198,1.15579 -0.39948,1.82382 0.125,0.625 l -2.36719,5.41602 4.50391,3.82617 c 0,0 6.44386,5.76176 13.58203,9.17773 1.78454,0.854 3.64076,1.62835 6.06445,1.97657 2.42369,0.34822 6.22445,0.1487 9.20899,-2.60938 2.98453,-2.75808 3.58143,-6.52509 3.45507,-9.4043 -0.12635,-2.8792 -0.84234,-5.62713 -2.00781,-8.93554 -12.81846,-36.38785 -19.84522,-55.06276 -23.89258,-63.64063 -1.01183,-2.14446 -1.62244,-3.53138 -3.07812,-5.3457 -0.72784,-0.90716 -1.28853,-2.784 -5.72852,-3.39258 z"
     id="path8" /><path
     style="color:#000000;fill:#163247;-inkscape-stroke:none;paint-order:stroke fill markers"
     d="m 256.81735,266.9745 c 5.48273,-12.53195 -33.5209,-146.3995 17.66512,-1.0974 8.09356,22.97528 -17.66512,1.0974 -17.66512,1.0974 z"
     id="path9" /></g><g
   id="path1-1"
   transform="matrix(1.3877215,0,0,1.3877215,-88.399667,-88.400601)"><path
     style="color:#000000;fill:#ffffff;-inkscape-stroke:none;paint-order:stroke fill markers"
     d="m 182.0957,236.25586 c -5.87506,-4e-5 -10.81881,4.92754 -10.82226,10.81055 v 0.002 0.002 c -2.5e-4,1.27477 0.32708,2.47024 0.75,3.61524 l -1.66211,1.73437 c -6.5573,6.84708 -10.83631,13.18171 -14.09571,21.04688 -3.17856,7.6701 -5.05498,15.8276 -4.66796,23.12304 0.22057,4.15815 1.16797,8.0279 2.89062,11.63282 2.61444,5.47104 6.84136,9.33175 12.13672,12.02929 4.79773,2.44403 9.90262,3.92415 16.33984,4.91797 6.29775,0.97233 14.70153,0.7674 20.83789,-0.30273 7.24797,-1.26399 13.41779,-3.37904 18.42383,-7.13672 5.00605,-3.75768 8.43948,-9.25524 9.95508,-15.29883 0.61137,-2.43798 0.82474,-5.0578 0.68945,-8.29687 -0.19523,-4.67427 -1.05208,-9.17422 -2.60937,-14.03125 -3.44977,-10.75946 -8.80454,-19.4497 -17.30078,-28.3086 v -0.002 l -0.28711,-0.29883 c 0.63366,-1.36475 1.03545,-2.84533 1.03515,-4.42383 v -0.002 -0.002 c -0.003,-5.88299 -4.9472,-10.81059 -10.82226,-10.81055 h -20.78906 z m 18.96485,23.35351 0.7207,0.11915 0.0566,0.79492 c -0.17762,-0.0821 -0.35367,-0.17129 -0.53516,-0.25 -0.0949,-0.23543 -0.1158,-0.40323 -0.24218,-0.66407 z m -17.97461,0.4961 c -0.0786,0.17504 -0.15771,0.34737 -0.22266,0.51758 -0.30465,0.14629 -0.58163,0.34266 -0.87891,0.5039 v -0.74218 z m -1.10157,3.23047 h 0.13282 c -0.0459,0.56611 -0.13282,1.17677 -0.13282,1.66601 z m 19.67188,3.75976 c 0.34104,0.0763 0.41791,0.15095 0.4707,0.18555 -0.0781,-0.0294 -0.12509,-0.0458 -0.26172,-0.0996 -0.0512,-0.0202 -0.15212,-0.0633 -0.20898,-0.0859 z m 8.37109,6.39063 c 2.12803,3.47383 3.69747,7.08953 5.10157,11.46875 1.23336,3.84674 1.7284,6.5677 1.86523,9.84375 0.11965,2.86462 0.1953,2.0853 -0.22656,3.76758 -0.79511,3.17055 -1.89046,4.81149 -4.08008,6.45507 -2.18962,1.64359 -5.88397,3.19193 -11.61523,4.19141 -0.005,9.2e-4 -0.0818,10e-4 -0.0879,0.002 0.17077,-0.33073 0.25075,-0.6175 0.38086,-0.9375 l -3.8164,0.85352 c 1.38669,-0.30998 2.71991,-0.75373 3.99609,-1.29883 0.0989,-0.28195 0.29579,-0.61606 0.34961,-0.86133 0.32332,-1.47353 0.29297,-2.36876 0.29297,-3.32226 v 3.86718 c 3.80632,-1.78468 6.98736,-4.65308 8.85352,-8.86718 2.96026,-6.68469 1.80994,-14.09825 -3.46485,-19.36719 -0.17671,-0.17651 -0.40141,-0.312 -0.58789,-0.48047 0.021,-0.0314 0.057,-0.0758 0.0781,-0.10742 0.40906,-0.61196 0.78198,-1.22698 1.1582,-1.87305 0.37622,-0.64607 0.73379,-1.28963 1.06641,-1.94531 0.1663,-0.32784 0.32388,-0.64523 0.51171,-1.0918 0.0488,-0.11602 0.14427,-0.22312 0.22461,-0.29687 z m -37.66992,3.36719 c 2.2e-4,3.77889 1.17999,7.52147 3.50781,10.60546 -0.006,0.007 -0.0113,0.0203 -0.0176,0.0274 -0.39498,0.44628 -0.63703,0.77743 -0.87891,1.11719 -0.48377,0.67951 -0.9056,1.35942 -1.33203,2.12109 l -3.56641,6.36914 3.58789,4.88867 c 1.9571,2.66603 3.96395,3.77595 6.125,4.86719 0.7053,0.35615 1.45882,0.63395 2.20117,0.92969 v -4.09766 c 1e-5,0.9765 -0.13329,1.8109 0.38086,3.73438 0.0573,0.21428 0.27472,0.45286 0.36914,0.67968 1.30244,0.47239 2.64728,0.87265 4.07227,1.14063 l -3.8457,-0.72266 c 0.0831,0.16944 0.17469,0.32747 0.27148,0.49805 -3.92955,-0.7347 -6.70775,-1.55124 -9.39453,-2.91992 -1.80197,-0.91796 -4.65352,-3.97114 -5.01172,-4.72071 -1.10616,-2.31481 -1.20337,-2.68226 -1.35937,-5.62304 -0.17681,-3.33295 1.12542,-10.51438 3.48047,-16.19727 0.42964,-1.03677 0.96803,-1.77137 1.41015,-2.69726 z"
     id="path1" /><path
     style="color:#000000;fill:#163247;-inkscape-stroke:none;paint-order:stroke fill markers"
     d="m 182.09585,244.20079 c -1.58773,-3.1e-4 -2.87527,1.2848 -2.8762,2.87078 -3.1e-4,1.58685 1.28759,2.87332 2.8762,2.87302 h 20.79058 c 1.58862,3e-4 2.87651,-1.28617 2.87621,-2.87302 -9.4e-4,-1.58598 -1.28848,-2.87109 -2.87621,-2.87078 z m -3.57714,11.18967 -2.41847,2.52518 c -6.12038,6.39085 -9.55589,11.50394 -12.49389,18.59356 -2.76681,6.6765 -4.35612,14.34472 -4.07421,19.65892 0.18829,3.54947 0.71031,5.66876 2.12472,8.62863 1.48632,3.11031 5.02548,6.56729 8.57415,8.37504 4.00394,2.03966 8.00036,3.22735 13.94688,4.14541 3.32087,0.51272 14.72319,0.33971 18.26035,-0.27714 12.97924,-2.26347 19.7256,-7.32721 22.03631,-16.54136 0.51662,-2.06013 0.58634,-2.98031 0.45887,-6.03216 -0.16603,-3.97516 -0.84283,-7.58508 -2.23816,-11.93697 -3.13382,-9.77404 -7.54938,-16.97792 -15.46896,-25.23554 l -1.82649,-1.90357 h -13.44028 z m 13.19595,6.94439 c 0.17935,-0.004 0.57261,-0.0409 0.78212,-0.0128 1.49549,-0.12615 1.65687,0.6211 1.68858,2.52336 l 0.12356,1.70833 1.18902,0.19524 c 2.42648,0.39942 7.08408,2.78388 7.08408,3.62647 0,0.46183 -2.37927,4.54767 -2.64818,4.54767 -0.12815,0 -1.48268,-0.53344 -3.01044,-1.18544 -2.20795,-0.9423 -3.13627,-1.18806 -4.52633,-1.19891 -3.55085,-0.0267 -5.34354,1.32311 -5.34354,4.02368 0,1.18752 0.13944,1.5828 0.79081,2.2413 1.10044,1.11253 2.57205,1.70326 6.34945,2.5493 4.10948,0.92043 5.99936,1.78446 7.76705,3.55019 2.58038,2.57752 3.35231,7.05492 1.81468,10.5271 -1.23935,2.79866 -4.38206,5.14658 -7.95969,5.94633 l -1.57319,0.35176 v 1.92041 c 0,1.49576 -0.11613,2.02534 -0.5257,2.39559 -0.66295,0.5993 -2.31127,0.61447 -3.14861,0.0287 -0.55336,-0.38718 -0.63915,-0.70812 -0.63915,-2.39112 v -1.94397 l -1.65349,-0.31081 c -3.40372,-0.64008 -6.95539,-2.43361 -8.21301,-4.14712 l -0.56221,-0.7658 1.06881,-1.90918 c 0.58797,-1.05019 1.2488,-1.9783 1.46817,-2.06233 0.21936,-0.0841 1.72854,0.50705 3.35416,1.31393 1.62564,0.80685 3.6677,1.60009 4.53757,1.76274 4.07529,0.76199 7.76424,-1.06546 7.76424,-3.84639 0,-2.6541 -1.35398,-3.66298 -6.21746,-4.6324 -4.4828,-0.89356 -6.39731,-1.64007 -8.07876,-3.15017 -3.40927,-3.06182 -4.13881,-8.16394 -1.74112,-12.17204 1.46212,-2.44414 3.87719,-4.13602 7.05094,-4.93871 l 1.22216,-0.30911 V 265.002 c 0,-1.82503 0.53002,-2.64185 1.78548,-2.66711 z"
     id="path7" /></g>
</svg>
